<svg id="logo" xmlns="http://www.w3.org/2000/svg" width="340" height="93" viewBox="0 0 340 93">
  <metadata><?xpacket begin="﻿" id="W5M0MpCehiHzreSzNTczkc9d"?>
<x:xmpmeta xmlns:x="adobe:ns:meta/" x:xmptk="Adobe XMP Core 5.6-c142 79.160924, 2017/07/13-01:06:39">
   <rdf:RDF xmlns:rdf="http://www.w3.org/1999/02/22-rdf-syntax-ns#">
      <rdf:Description rdf:about=""/>
   </rdf:RDF>
</x:xmpmeta>
<?xpacket end="w"?></metadata>
<defs>
    <style>
      .cls-1 {
        font-size: 50px;
        fill: #fff;
        font-family: "Brandon Grotesque";
        font-weight: 500;
      }

      .cls-2, .cls-3 {
        fill: #ffa801;
      }

      .cls-3 {
        fill-rule: evenodd;
      }
    </style>
  </defs>
  <text id="achmor" class="cls-1" transform="translate(11.397 73.13) scale(1.747 1.75)">achmor</text>
  <rect id="Rounded_Rectangle_1_copy" data-name="Rounded Rectangle 1 copy" class="cls-2" x="13.875" y="25.625" width="29.688" height="5.25" rx="1.5" ry="1.5"/>
  <rect id="Rounded_Rectangle_1" data-name="Rounded Rectangle 1" class="cls-2" x="13" y="26" width="33" height="5" rx="2.5" ry="2.5"/>
  <path id="Rounded_Rectangle_1-2" data-name="Rounded Rectangle 1" class="cls-3" d="M276.8,36.15a3.51,3.51,0,0,1-4.915-.342l-3.361-3.9H247.451A3.451,3.451,0,0,1,244,28.455v0A3.451,3.451,0,0,1,247.451,25h22.473a3.418,3.418,0,0,1,2.14.763,3.458,3.458,0,0,1,.983.766l4.1,4.757A3.422,3.422,0,0,1,276.8,36.15Z"/>
  <rect id="Rounded_Rectangle_1_copy-2" data-name="Rounded Rectangle 1 copy" class="cls-2" x="276" y="39" width="49" height="5.969" rx="2.984" ry="2.984"/>
  <rect id="Rounded_Rectangle_1_copy_2" data-name="Rounded Rectangle 1 copy 2" class="cls-2" x="279.625" y="50.531" width="41.031" height="5.969" rx="2.984" ry="2.984"/>
  <rect id="Rounded_Rectangle_1_copy_3" data-name="Rounded Rectangle 1 copy 3" class="cls-2" x="283.969" y="62.875" width="32.094" height="6" rx="2.985" ry="2.985"/>
  <path class="cls-3" d="M308.734,83a4.8,4.8,0,1,1,4.735-4.8A4.766,4.766,0,0,1,308.734,83Zm-16.656,0a4.8,4.8,0,1,1,4.734-4.8A4.765,4.765,0,0,1,292.078,83Z"/>
</svg>
